<?xml version="1.0" encoding="utf-8"?>
<!-- Generator: Adobe Illustrator 14.0.0, SVG Export Plug-In . SVG Version: 6.00 Build 43363)  -->
<!DOCTYPE svg PUBLIC "-//W3C//DTD SVG 1.1//EN" "http://www.w3.org/Graphics/SVG/1.1/DTD/svg11.dtd">
<svg version="1.1" id="Layer_1" xmlns="http://www.w3.org/2000/svg" xmlns:xlink="http://www.w3.org/1999/xlink" x="0px" y="0px"
	 width="465.386px" height="520.83px" viewBox="0 0 465.386 520.83" enable-background="new 0 0 465.386 520.83"
	 xml:space="preserve">
<g id="logo">
	<polygon stroke="#FFFFFF" points="180.582,345.847 173.279,348.094 151.325,369.324 153.897,392.756 205.301,412.136 
		261.199,419.439 290.411,418.316 306.142,414.102 308.95,411.013 314.287,403.43 342.095,384.329 366.533,370.283 388.161,337.981 
		400.52,320.567 416.251,300.905 421.869,296.129 426.924,292.197 413.162,277.869 390.97,275.342 382.262,287.702 351.645,330.678 
		292.658,361.575 234.233,360.733 205.301,356.521 	"/>
	<path d="M459.087,257.368c0,1.217,0,2.435,0,3.649c-0.42,15.406-2.286,29.364-5.057,42.415
		c-20.511-5.234-40.713-10.782-60.954-16.292c-14.224,43.381-43.226,75.094-87.076,89.607c-22.947,7.593-51.512,8.948-76.685,2.245
		c-23.039-6.132-41.704-17.716-56.739-31.459c7.607-8.685,16.314-16.268,24.157-24.718c17.116,15.337,37.307,28.93,67.694,28.93
		c31.103,0,53.098-10.962,69.38-27.245c15.989-15.989,29.214-37.458,29.214-67.415c0-31.512-11.035-52.258-27.247-69.38
		c4.79-5.404,9.812-10.374,15.45-16.01c1.118-1.121,5.268-4.181,5.335-5.057c0.081-1.022-3.825-4.213-5.335-5.619
		c-20.044-18.62-46.938-33.706-84.55-33.706c-14.032,0-26.659,1.952-37.639,5.337c-43.014,13.259-71.474,44.35-83.986,87.918
		c-11.37-2.862-22.482-5.981-33.708-8.989c-9.823,27.194-8.096,65.968,0,92.132c8.306,26.847,22.295,48.701,39.605,66.012
		c17.277,17.275,39.188,31.66,65.728,39.885c26.199,8.122,64.725,9.647,92.414,0.282c8.429,31.738,17.533,62.802,26.124,94.378
		c-19.751,5.719-41.898,9.04-66.853,9.553c-2.529,0-5.057,0-7.586,0c-80.043-2.887-134.233-34.72-176.961-75.281
		c-21.01-19.941-38.91-45.567-51.964-74.154C18.579,335.325,9.073,301.836,7.693,262.424c0-4.026,0-8.052,0-12.079
		c0.607-17.527,2.573-34.02,5.899-49.155c9.837-44.771,28.505-79.873,53.369-109.83c32.78-39.495,76.213-70.188,132.301-85.11
		c6.021,20.757,11.358,42.198,17.414,62.919c30.3-8.843,69.655-6.474,97.47,1.125c29.039,7.934,53.443,21.249,73.031,37.639
		C427.293,141.499,456.303,187.442,459.087,257.368z"/>
	<path fill="#C9121B" d="M392.59,286.973c0.095,0,0.189,0,0.282,0c9.801,2.93,19.902,5.471,30.049,8.279
		c-14.454,49.797-45.605,87.927-91.557,106.871c-22.266,9.178-25.822,11.846-60.757,14.277c-7.015,0.189-10.208-0.235-15.075-0.235
		c-48.477-2.684-80.387-21.434-105.428-46.991c7.231-7.28,14.772-14.83,22.472-21.642c15.309,13.975,33.707,25.247,56.467,31.279
		c24.561,6.512,53.462,5.525,76.481-1.966C348.909,362.729,379.314,329.954,392.59,286.973z"/>
	<path fill="#020202" d="M241.121,292.725h-12.926v-55.079l-14.207,12.135v-13.481l14.207-12.134h12.926V292.725z"/>
	<path fill="#020202" d="M305.522,235.433l-22.792,57.292h-13.913l22.791-57.292h-18.547v10.784h-12.233v-22.051h44.694V235.433z"/>
</g>
</svg>
